      :::::::::  :::::::::   ::::::::::: ::::::::  ::::    ::: :::::::::: 
     :+:    :+: :+:    :+:      :+:    :+:    :+: :+:+:   :+: :+:         
    +:+    +:+ +:+    +:+      +:+    +:+    +:+ :+:+:+  +:+ +:+          
   +#++:++#+  +#++:++#+       +#+    +#+    +:+ +#+ +:+ +#+ +#++:++#      
  +#+        +#+    +#+      +#+    +#+    +#+ +#+  +#+#+# +#+            
 #+#        #+#    #+#      #+#    #+#    #+# #+#   #+#+# #+#             
###        #########       ###     ########  ###    #### ########## 



General
Format                           : AVI
Format/Info                      : Audio Video Interleave
File size                        : 34.1 MiB
Duration                         : 4mn 24s
Overall bit rate                 : 1 082 Kbps
Writing application              : MEncoder Sherpya-SVN-r32492-4.2.5
Writing library                  : MPlayer

Video
ID                               : 0
Format                           : AVC
Format/Info                      : Advanced Video Codec
Format profile                   : Baseline@L1.3
Format settings, CABAC           : No
Format settings, ReFrames        : 2 frames
Codec ID                         : h264
Duration                         : 4mn 24s
Bit rate                         : 948 Kbps
Nominal bit rate                 : 1 024 Kbps
Width                            : 640 pixels
Height                           : 480 pixels
Display aspect ratio             : 4:3
Frame rate                       : 25.000 fps
Color space                      : YUV
Chroma subsampling               : 4:2:0
Bit depth                        : 8 bits
Scan type                        : Progressive
Bits/(Pixel*Frame)               : 0.123
Stream size                      : 29.9 MiB (88%)
Writing library                  : x264 core 107 r1745 4785e8e

Audio
ID                               : 1
Format                           : MPEG Audio
Format version                   : Version 1
Format profile                   : Layer 3
Mode                             : Joint stereo
Mode extension                   : MS Stereo
Codec ID                         : 55
Codec ID/Hint                    : MP3
Duration                         : 4mn 22s
Bit rate mode                    : Constant
Bit rate                         : 32.0 Kbps
Channel(s)                       : 2 channels
Sampling rate                    : 44.1 KHz
Compression mode                 : Lossy
Stream size                      : 3.82 MiB (11%)
Alignment                        : Aligned on interleaves
Interleave, duration             : 26 ms (0.66 video frame)
Interleave, preload duration     : 136 ms
Writing library                  : LAME3.98.4




Screen Shoot
 
http://imagehacks.in/share-11FB_4D39DEFF.html



 
http://www.pbtone.net



